<?xml version="1.0" encoding="UTF-8" standalone="no"?>
<!-- Created with Inkscape (http://www.inkscape.org/) -->

<svg
   width="83.37674mm"
   height="87.188148mm"
   viewBox="0 0 83.37674 87.188148"
   version="1.1"
   id="svg5"
   xml:space="preserve"
   inkscape:version="1.2 (dc2aedaf03, 2022-05-15)"
   sodipodi:docname="Edukobi.svg"
   xmlns:inkscape="http://www.inkscape.org/namespaces/inkscape"
   xmlns:sodipodi="http://sodipodi.sourceforge.net/DTD/sodipodi-0.dtd"
   xmlns="http://www.w3.org/2000/svg"
   xmlns:svg="http://www.w3.org/2000/svg"><sodipodi:namedview
     id="namedview7"
     pagecolor="#ffffff"
     bordercolor="#666666"
     borderopacity="1.0"
     inkscape:showpageshadow="2"
     inkscape:pageopacity="0.0"
     inkscape:pagecheckerboard="0"
     inkscape:deskcolor="#d1d1d1"
     inkscape:document-units="mm"
     showgrid="false"
     inkscape:zoom="1.2938725"
     inkscape:cx="175.82876"
     inkscape:cy="277.46165"
     inkscape:window-width="2560"
     inkscape:window-height="1369"
     inkscape:window-x="2552"
     inkscape:window-y="-4"
     inkscape:window-maximized="1"
     inkscape:current-layer="layer1" /><defs
     id="defs2" /><g
     inkscape:label="Calque 1"
     inkscape:groupmode="layer"
     id="layer1"
     transform="translate(-51.410196,-90.193712)"><g
       id="g492"
       transform="translate(0,-67.960078)" /><path
       sodipodi:type="star"
       style="fill:#fcc134;fill-opacity:1;stroke:#fcb011;stroke-width:1.26517;stroke-linecap:round;stroke-linejoin:round;stroke-opacity:1"
       id="path686"
       inkscape:flatsided="false"
       sodipodi:sides="5"
       sodipodi:cx="63.043812"
       sodipodi:cy="82.708862"
       sodipodi:r1="37.938175"
       sodipodi:r2="22.654596"
       sodipodi:arg1="0.98067956"
       sodipodi:arg2="1.6022356"
       inkscape:rounded="0.14"
       inkscape:randomized="0"
       d="m 84.154815,114.23077 c -2.72809,1.85393 -18.527127,-8.75253 -21.82313,-8.87851 -3.336328,-0.12752 -20.105232,9.22157 -22.743331,7.17516 C 36.982141,110.50575 42.187306,92.2024 41.288598,89.028785 40.378896,85.816343 26.305508,72.757194 27.436539,69.615839 28.5539,66.512452 47.569906,65.806811 50.310477,63.971388 53.084578,62.113511 61.15565,44.693424 64.492765,44.798367 c 3.29678,0.103674 9.844153,17.970915 12.436627,20.010177 2.624191,2.06421 21.685776,4.357154 22.617195,7.563367 0.920163,3.167461 -14.049346,14.915664 -15.18768,18.01142 -1.152262,3.13363 2.557373,21.970829 -0.204092,23.847439 z"
       inkscape:transform-center-x="4.0891094"
       inkscape:transform-center-y="-0.0026580384"
       transform="matrix(1.1095315,-0.41801335,0.41804079,1.1094092,-7.3835786,68.277635)" /><path
       d="m 102.67924,128.9012 c -0.45611,-1.18861 0.7115,-3.92425 2.21485,-5.18923 2.18989,-1.84267 4.70968,-1.6494 6.88043,0.52772 1.89288,1.89843 1.39898,2.68002 -0.72526,1.14773 -3.02278,-2.18043 -5.91586,-1.19375 -6.62189,2.25838 -0.3539,1.73037 -1.30403,2.4127 -1.74813,1.2554 z"
       style="fill:#171c3a;stroke-width:0.999999"
       id="path3607" /><path
       d="m 82.946007,134.6269 c -0.45611,-1.18861 0.7115,-3.92425 2.21485,-5.18923 2.18989,-1.84267 4.70968,-1.6494 6.88043,0.52772 1.89288,1.89843 1.39898,2.68002 -0.72526,1.14773 -3.02278,-2.18043 -5.91586,-1.19375 -6.62189,2.25838 -0.3539,1.73037 -1.30403,2.4127 -1.74813,1.2554 z"
       style="fill:#171c3a;stroke-width:0.999999"
       id="path3622" /><path
       style="fill:#000000;stroke:#000000;stroke-width:0.264583px;stroke-linecap:butt;stroke-linejoin:miter;stroke-opacity:1"
       d="m 94.883127,138.2349 c 1.08962,-1.05039 3.00962,-0.34325 4.49877,-0.61347 1.513123,-0.27456 2.992413,-1.33197 4.498773,-1.02244 0.90814,0.18661 1.89051,0.78107 2.24938,1.63591 0.72015,1.71547 0.0963,3.90087 -0.81796,5.52122 -0.9993,1.77103 -2.71999,3.43611 -4.70326,3.8853 -1.644613,0.37249 -3.605043,-0.15621 -4.907753,-1.22694 -0.98936,-0.81318 -1.46504,-2.2071 -1.63591,-3.47632 -0.21232,-1.57705 -0.32769,-3.59887 0.81796,-4.70326 z"
       id="path8056"
       sodipodi:nodetypes="aaaaaaaaa" /></g></svg>
